<svg xmlns="http://www.w3.org/2000/svg" xmlns:xlink="http://www.w3.org/1999/xlink" width="2432" height="1442" viewBox="0 0 2432 1442">
  <defs>
    <linearGradient id="linear-gradient" x1="-0.048" y1="0.053" x2="1.04" y2="1" gradientUnits="objectBoundingBox">
      <stop offset="0" stop-color="#d600ff"/>
      <stop offset="1" stop-color="#07f"/>
    </linearGradient>
  </defs>
  <g id="Group_2" data-name="Group 2" transform="translate(-715.578 -835)">
    <rect id="Rectangle_1" data-name="Rectangle 1" width="2432" height="1442" transform="translate(715.578 835)" fill="#fff" opacity="0"/>
    <path id="Union_1" data-name="Union 1" d="M-1676.575,771.657c-100.2-44.7-102.679-41.947-102.679-47.743,0,3.764-.24-59.755-.4-95.548,3.835-7.948-8.549,2.75,100.523-46.489v-2.151c-97.806-43.561-100.922-40.991-100.922-46.907,0,2.272-.24-60.053-.4-95.846.159-6.811,14.462-7.529,102.44-47.5v-.418c-100.2-44.7-102.679-41.947-102.679-47.743-.8-98.117-1.759-98,2.876-100.148l94.21-45.593c-93.969-42.008-97.8-39.676-97.8-45.592,1.759-81.086-5.353-96.264,3.117-100.148-.958.449,110.284-47.82,222.712-96.089,112.479-48.29,226.144-96.583,229.824-96.088-.6-.258-.608-.266.047.012a.2.2,0,0,0-.047-.012c9.38,4.056,163.42,69.918,165.222,70.7,16.621-10.1,30.844-17.15,39.953-31.312,10.627-16.911,15.661-36.51,27.408-31.192,7.911,3.465,1.119,7.649-7.752,24.26-10.626,19.659-14.861,25.4-46.345,44.039,29.326,13.745,35.878,13.326,35.878,18.644,0,1.852-1.278,3.585-3.436,4.6l-1.918.837,6.393,83.118,427.022-183.626-88.937-38.66c-5.435,2.21-21.016,7.409-26.45,5.079L-851.378-198.8c-8.532-3.343-20.917,2.114-32.41,7.572-10.9,5.175-20.992,10.35-26.241,8.023-60.808-26.41-56.414-27.545-68.161-20.495-7.591,4.482-16.62-4-9.109-8.485,23.333-14.043,31.243-2.33,81.024,18.166,23.013-8.247,39.154-23.244,61.768-14.281l50.582,22.109a76.405,76.405,0,0,0,14.863-4.183c0-95.846-1.358-92.678.8-95.129s-3.437,1.016,110.191-48.342c0-90.826-1.358-92.56.559-95.129,1.351-1.728,446.195-193.42,448.113-194.257,6.951-2.868,5.593.477,106.355,43.321,5.593,4.3,3.277-6.095,4.076,100.148,0,5.8-2.318,3.047-95.729,44.456,88.378,51.089,89.736,51.329,91.495,52.942,4.235,3.345,1.358-1.135,3.276,93.814,0,5.915-3.277,3.287-101.882,47.743a3.061,3.061,0,0,1,1.518.3c72.957,38.063,106.916,43.141,99.165,52.942h-.005c.239,98.714,4.635,98.176-2.317,101.343l-84.7,36.808L-114.167.354c4.634,2.689,2.477,2.151,1.917,91.9,0,5.8-1558.332,679.581-1560.25,680-.7,0-1.172.031-1.587.031A5.471,5.471,0,0,1-1676.575,771.657Zm-88.065-50.9,85.261,37.108,1.119-82.282-86.859-37.824Zm100.763-45.473L-1665,757.263l208-90.347-4.075-78.815Zm-94.211-46.965,86.858,37.644,114.667-49.238c-2.557-2.749-.56.418-5.993-72.72Zm315.319,32.38,210.718-91.484-4.075-77.8-211.352,90.946h-.005C-1446.125,584.51-1447.084,580.625-1442.768,660.7Zm-101-125.365c-1.358,1.435-2.318,1.435-4.634,2.57l4.794,73.319,195.692-84.135-6.553-74.035Zm-119.849-53.417-.8,93.4,208.237-90.527c.159,1.435-5.594-88.616-5.594-90.049Zm-101.905,47.627,86.618,37.7.559-82.7-87.576-38.123Zm547.7,33.644,209.839-91.243c-1.039-1.973,0,5.2-4.475-76.605l-209.594,90.049h0C-1221.808,489.818-1218.047,561.668-1217.822,563.185Zm-122.737-116.168,6.552,74.155,214.078-92.081c-3.276-2.868-.959-.717-6.393-75.171Zm-104.835-60.051c-1.358,1.493-.4.478-2.318,1.613l5.594,90.049,206.868-89.929c-.151-1.333-5.03-88.519-5.03-89.931Zm-313.177,50.015,83.743,36.39c2.717-1.433,83.741-36.21,105-45.292l-1.918-72.721-62.726,27.428h0C-1636.072,384.1-1626.242,379.437-1758.569,436.981ZM-998.24,389.3l3.835,76.784,210-91.184-3.835-75.768Zm-114.193-41.416,4.8,75.886,207.678-89.15-4.475-77.083Zm-445.074,1.081,1.918,72.9,210-90.228-5.433-73.139Zm-106.118-57.255.159,91.184,205.2-89.869c-.4-1.733-3.676-68.837-4.635-87.6Zm437.512.968,4.794,89.93,211.352-91.782a1.54,1.54,0,0,1-.4-1.016l-6.152-87.18Zm-540.206,45.527,88.137,38.363-.16-82.987c-4.693-1.984-79.293-34.445-88.376-38.373Zm995.966,30.239,204.725-88.914-3.836-74.872-94.53,40.693c-1.119,1.495-108.274,46.669-110.191,47.5l0,0a.05.05,0,0,0,0-.021C-774.274,292.84-770.353,367.2-770.353,368.447ZM-890.205,251.262l4.475,77.083L-677.1,238.774l-4.475-78.1Zm-446.9,1.021,5.434,73.318,206.075-88.616-3.276-75.887ZM-1448.9,199.339c.138,1.337,4.471,86.19,4.471,87.6l209.2-91.841-2.157-86.7Zm446.287-2.742,6.153,88.315,208.082-90.526-5.194-87.719Zm-664.857,4.057-92.372,44.694,86.858,37.825,109.394-47.026-.8-80.369C-1676.344,204.717-1663.4,199.937-1667.475,200.654Zm1112.151-1.847,4.06,74.93,213.439-92.8-3.836-73.915ZM-667.5,154.458l4.475,78.218,210.555-90.468-5.993-78.517Zm-447.065.306,3.276,76.067,211.353-90.766-2.717-78.1Zm-435.6-5.321.8,80.071,202.4-87.3-1.358-81.384Zm327.063-47.194,2.158,86.585,208.407-91.364-2.321-84.852Zm443.5-1.436c.332,4.959,5.429,86.083,5.429,87.6l211.5-91.963-5.993-86.284Zm-889.862.462,6.792,85.269,99-43.44a7.7,7.7,0,0,1,6.393-3.047h0s.159,0,.079-.12l96.128-42.126c-.719-2.153-.16,4.48.4-86.7Zm-97.58,45.6,89.734,38.96c.319,3.7-4.475-55.99-6.792-85.747l-83.182-36.212ZM-327.6,100.808l3.835,73.737,197.21-85.569.8-74.871ZM-1226,6.512c-2.876,2.45.241.12-108.033,48.042l1.358,81.564,208.244-89.751-6.24-81.982Zm781.421,51.081,5.993,78.517,99.564-42.844c1.919-2.031-3.515,1.136,105.557-45.891-.958-1.972.24,4.242-5.753-79.055Zm-443.849-2.022,2.717,78.218,207.282-89.033L-682.505-34.6ZM-1446.123,6.393l-.8,85.15L-1279.6,18.1c1.757-1.552-1.358.419,40.912-18.464l-5.035-73.438ZM-1760.18,54.5l84.7,36.808,208.244-89.93-84.7-36.808Zm760.034-47.974,2.157,84.732,209.758-91.9-5.594-81.446Zm445.381-2.392,5.993,86.285,211.522-91.9-4.076-86.165Zm329.6-42.009,5.593,79.353,88.218-37.825L-211.5-43.8ZM-668.452-40.8l4.075,79.532,204-87.778-2.716-81.8Zm-869.172-.726,86.859,37.644L-1232.7-90.469l-96.528-41.11Zm307.958-37.945,5.034,72.9,91.889-40.751c-4.277-1.846-83.12-36.137-84.937-36.929Zm449.557-8.666,5.754,81.266,205.678-90.165c-.233-4.652-3.268-79.2-3.268-80.552Zm453.064-5.552,4.075,85.986,198.729-86.286-1.358-86.284ZM-448.81-137.07c.4,2.031,1.758,47.207,2.876,81.983l212.311-91.243c-.023-1.624-.246-32.485-.4-84.852Zm-108.809-46.615,3.276,80.548,210.146-92.2-3.676-78.516Zm-108.144-52.041.148,85.927,208.407-89.631c-.159-2.031-1.118-68-1.518-86.464C-493.8-310.6-630.6-251.022-665.763-235.725Zm-98.6,45.593,84.542,36.808-.4-83.119-84.541-36.807Zm544.805-37.227.16,73.318,87.818-36.509-82.785-39.14ZM-333.827-280l3.676,78.338,205.527-89.991-.959-77.8Zm-110.592-52.262c-.044.005,1.6,85.166,1.527,86.73l208.632-89.632c-.4-1.912-5.034-65.253-6.552-84.731L-444.41-332c0-.176-.008-.263-.009-.263Zm-313.151,49.5,85.5,37.227,96.609-41.947-85.262-37.108Zm104.208-51.083,84.541,36.807-.4-83-84.541-36.808Zm98.6-46.251.4,83,207.842-89.751c0,1.435.8-81.982.8-83.417Zm328.084-45.886,6.393,84.732,88.938-38.243-86.86-50.074Zm-419.989-.245c3.925,1.7,82.874,36.012,84.7,36.809,25.654-11.115,190.085-82.153,208.24-89.928-5.07-2.19-82.9-36.025-84.7-36.81Zm315.392-50.246-.8,83.417,208.644-90.049-.4-83Zm-92.7-45.831c3.925,1.7,82.874,36.012,84.7,36.808,25.655-11.115,190.1-82.162,208.243-89.93l-84.7-36.807ZM-96.8,707.716a45.116,45.116,0,0,1-12.819-7.324l-.045-.016a2.5,2.5,0,0,1-.208-.208c-.04-.046-.087-.089-.125-.14s-.1-.133-.14-.2a1.486,1.486,0,0,1-.12-.207l-.036-.058c-.021-.046-.033-.1-.052-.151a1.593,1.593,0,0,1-.079-.231c-.02-.076-.036-.153-.049-.231s-.019-.139-.027-.217a.553.553,0,0,1-.007-.242,1.519,1.519,0,0,1,.017-.221.435.435,0,0,1,.038-.225c.027-.073.055-.15.081-.222l.077-.211c.026-.073.052-.145.079-.218a2.464,2.464,0,0,1,.142-.219,1.241,1.241,0,0,1,.082-.121l.018-.051a2.6,2.6,0,0,1,.191-.194c.049-.046.1-.1.153-.14l.2-.135.208-.12.057-.036,24.726-11.507,1-22.368-17.784-13.592-24.739,11.508-.058.023a1.728,1.728,0,0,1-.237.077,1.565,1.565,0,0,1-.227.069,1.515,1.515,0,0,1-.192.023,1.789,1.789,0,0,1-.293.026l-.039-.014a.962.962,0,0,1-.189-.018l-.176-.013a2.622,2.622,0,0,1-.415-.107,2.5,2.5,0,0,1-.376-.181,1.253,1.253,0,0,1-.115-.08,1.485,1.485,0,0,1-.224-.163l-.119-.106-.2-.217-.083-.1a2.151,2.151,0,0,1-.216-.374.051.051,0,0,1-.023-.058,3.419,3.419,0,0,1-.118-.334l-.031-.143a2.16,2.16,0,0,1-.034-.284,1.213,1.213,0,0,1-.012-.161l.021-.056c.272-16.011,8.245-29.211,21.342-35.318,14.062-6.563,30.99-3.118,43.546,8.723L4.833,599.266l.034.012.012-.032,61.107-28.469c-1-17.229,7.248-32.408,21.317-38.968,13.088-6.1,28.334-3.731,40.765,6.358l.039.014a2.136,2.136,0,0,1,.214.21c.04.047.087.089.125.14l.135.2a1.639,1.639,0,0,1,.12.208l.038.051.05.157a1.714,1.714,0,0,1,.08.231,2.244,2.244,0,0,1,.048.231c.011.073.021.133.028.219s.005.158,0,.247a2.1,2.1,0,0,1-.014.214.473.473,0,0,1-.04.232l-.077.211a1.465,1.465,0,0,1-.081.222.915.915,0,0,1-.077.211c-.048.077-.131.172-.148.217l-.051.139c-.006.016-.013.033-.018.049-.06.061-.131.136-.186.185s-.1.1-.16.143a1.556,1.556,0,0,1-.185.128c-.072.042-.176.106-.224.132l-.047.027L102.922,553.7,101.9,576.062l17.786,13.586,24.736-11.567.064-.021a1.109,1.109,0,0,1,.226-.082,2.05,2.05,0,0,1,.231-.067,1.509,1.509,0,0,1,.193-.025,2.754,2.754,0,0,1,.287-.028l.049.019.122.044a1.952,1.952,0,0,1,.271.035l.212.077a1.487,1.487,0,0,1,.211.077,1.781,1.781,0,0,1,.229.083l.193.109.184.135a1.806,1.806,0,0,1,.178.153,2.257,2.257,0,0,1,.152.169l.143.178.132.224.073.128a.157.157,0,0,1,.023.058,1.467,1.467,0,0,1,.082.244l.067.213.028.218a1.793,1.793,0,0,1,.019.259.234.234,0,0,1,.007.066c-.317,16.019-8.274,29.226-21.289,35.3a36.447,36.447,0,0,1-28.137.9,45.034,45.034,0,0,1-15.4-9.613L21.986,635.378c-.059.028-.119.032-.174.062s-.1.065-.152.09L-47.546,667.8c.99,17.219-7.252,32.388-21.311,38.939a35.244,35.244,0,0,1-14.959,3.32A37.935,37.935,0,0,1-96.8,707.716Zm-3.3-63.825a2.412,2.412,0,0,1,.63.343l19.936,15.226a2.369,2.369,0,0,1,.931,2.008l-1.143,25.056a2.37,2.37,0,0,1-1.379,2.056l-22.361,10.427c10.354,6.9,22.292,8.214,32.586,3.418,12.856-6,19.925-19.743,18.446-35.861l.018-.05a2.079,2.079,0,0,1,0-.27,1.251,1.251,0,0,1,.013-.209.543.543,0,0,1,.046-.23l.079-.217.076-.211a1.044,1.044,0,0,1,.079-.217,1.074,1.074,0,0,0,.135-.2,1.174,1.174,0,0,1,.132-.173,1.455,1.455,0,0,1,.169-.172,2.149,2.149,0,0,1,.167-.147,1.31,1.31,0,0,1,.185-.128,2.2,2.2,0,0,1,.218-.129c.045,0,.055-.031.055-.031l70.693-32.992.178-.06a1.1,1.1,0,0,1,.153-.09l62.472-29.137.07-.018a1.378,1.378,0,0,1,.2-.073c.085-.026.177-.056.266-.074l.128-.022a2.429,2.429,0,0,1,.343-.027l.067.025a2.6,2.6,0,0,1,.383.039l.061.022a2.887,2.887,0,0,1,.367.134l.095.034a3.406,3.406,0,0,0,.312.164l.12.087a2.712,2.712,0,0,1,.238.194l.056.021c11.4,11.494,26.463,14.912,39.325,8.914,10.289-4.8,16.961-14.788,18.321-27.163L120.4,594.595a2.413,2.413,0,0,1-1.824.08,2.346,2.346,0,0,1-.635-.351L98.011,579.1a2.368,2.368,0,0,1-.932-2.009l1.149-25.053a2.368,2.368,0,0,1,1.378-2.056l22.381-10.426c-10.324-6.914-22.264-8.223-32.6-3.409C76.5,542.139,69.444,555.895,70.9,572.074a2.165,2.165,0,0,1-.006.452,3.661,3.661,0,0,1-.085.4l-.022.061a2.046,2.046,0,0,1-.128.351c-.01.027-.02.055-.031.083a2.3,2.3,0,0,1-.191.284,1.129,1.129,0,0,1-.075.1,2.386,2.386,0,0,1-.2.205l-.14.125-.184.122a1.858,1.858,0,0,1-.232.135l-.041.03L6.934,603.571l-.05.013-.01.028-70.833,33.067-.051.02a1.834,1.834,0,0,1-.238.084l-.232.066a1.349,1.349,0,0,1-.147.022,2.729,2.729,0,0,1-.332.031l-.056-.021a3.013,3.013,0,0,1-.4-.039,2.216,2.216,0,0,1-.34-.086l-.088-.032a2.369,2.369,0,0,1-.789-.532c-11.4-11.51-26.446-14.944-39.345-8.928-10.327,4.815-16.99,14.814-18.335,27.164l22.379-10.459a2.4,2.4,0,0,1,1.009-.222A2.412,2.412,0,0,1-100.105,643.891Zm45.041,7.24a2.378,2.378,0,0,1-1.348-1.236,2.389,2.389,0,0,1,1.158-3.173L71.708,587.513a2.39,2.39,0,0,1,2.021,4.333L-53.24,651.052a2.379,2.379,0,0,1-1.005.224A2.387,2.387,0,0,1-55.064,651.13ZM-1260.275-162.527c-11.115-.836-24.081-10.219-20.616-20.615-.836,2.212,11.234-32.327,12.848-36.629l-18.166-8.664c-35.015-17.03-37.227-36.63-67.223-76.187-7.529-10.994-20.675-14.579-31.192-20.376-34.179,15.6-54.376-10.337-138.39-46.01l0,0c-62.92-29.878-18.881-111.144,39.8-83.835,69.134,38.543,117.475,42.844,125.542,78.935,6.035,3.467,32.028,12.011,46.309,33.343l33.342,48.641c7.649,11.591,22.647,15.894,28.861,19.36,34.48-91.178-9.5-86.589,246.481,78.1,14.879,9.68,5.916,20.676-3.466,47.506-1.816,5.143-3.319,7.662-17.083,7.662C-1046.567-141.3-1105.154-148.546-1260.275-162.527Zm-10.445-17.151c14.15,12.668-16.445-.6,249.525,27.845h.014c3.287.3,4.72-.6,4.781-.717l7.051-19.778a6.8,6.8,0,0,0-1.613-.12c-246.911-23.782-240.876-17.866-252.707-27.128Zm49.212-142.084c-1.58,4.907-31.075,90.527-38.165,110.781,34.358,13.564-41.959-.9,249.526,27.845,3.047.3,4.481-.419,4.78-.717-1.314-1.494-1.015-1.912-3.346-3.346-140.748-89.444-196.136-135.6-210.077-135.6A3.42,3.42,0,0,0-1221.509-321.763Zm-152.906-49.174c-10.188,0-25.328,25.718-12.782,32.856,16.313,8.9,32.627,12.848,42.725,27.547,30.713,40.812,31.49,57.244,62.922,72.422l17.03,8.067,11.771-34.061-13.684-6.512h0c-33.582-16.432-42.246-69.554-83.357-89.093l-22.528-10.815a5.342,5.342,0,0,0-2.089-.41Zm152.858,49.23h.007l.005-.015A.173.173,0,0,1-1221.557-321.707Zm-296.8-59.161c90.049,40.275,98.594,53.54,121.658,48.641-16.732-16.732,4.9-52.405,24.977-49.358-10.814-18.643-28.561-19.36-116.042-63.22a44.183,44.183,0,0,0-18.815-4.433C-1541.685-449.237-1561.469-401.375-1518.359-380.868ZM-1325.71-142.34l.009,0ZM-444.414-332l0,0v0Zm-1519.5-15.028a29.381,29.381,0,0,1-8.342-4.775l-.044-.016a1.944,1.944,0,0,1-.2-.193l-.14-.152a2.245,2.245,0,0,1-.126-.191l-.129-.217-.031-.055a.892.892,0,0,1-.048-.144,2.254,2.254,0,0,1-.089-.24,1.983,1.983,0,0,1-.045-.224c-.009-.078-.053-.164-.029-.23a1.628,1.628,0,0,1-.005-.229.831.831,0,0,1,.016-.234,1.3,1.3,0,0,1,.04-.212,1.824,1.824,0,0,1,.085-.234,1.335,1.335,0,0,1,.073-.2,1.875,1.875,0,0,1,.083-.229.709.709,0,0,1,.136-.215.213.213,0,0,0,.082-.121l.018-.049c.064-.072.129-.13.191-.2l.158-.139a1.433,1.433,0,0,1,.2-.13,2.276,2.276,0,0,1,.2-.127l.062-.034,15.176-7.077.6-13.154-10.466-7.993-15.176,7.077-.064.021a1.482,1.482,0,0,1-.223.077,1.941,1.941,0,0,1-.234.072l-.186.027a2.17,2.17,0,0,1-.3.018l-.039-.014a.356.356,0,0,1-.189-.018.865.865,0,0,1-.175-.02,2.061,2.061,0,0,1-.415-.106,2.056,2.056,0,0,1-.375-.181l-.118-.075-.224-.163-.116-.112a2.028,2.028,0,0,1-.2-.212l-.081-.105a2.414,2.414,0,0,1-.219-.369l-.021-.064a2.6,2.6,0,0,1-.118-.333l-.031-.143a1.71,1.71,0,0,1-.037-.278.448.448,0,0,1-.011-.162.473.473,0,0,1,.014-.058c.176-10.47,5.413-19.11,14-23.115,9.059-4.226,19.919-2.144,28.077,5.267l14.288-6.681,38.12-17.758c-.426-11.016,4.909-20.654,14.015-24.9,8.589-4.006,18.574-2.463,26.7,4.138l.045.016a2.516,2.516,0,0,1,.208.208c.04.046.087.088.125.139a2.3,2.3,0,0,1,.135.2,1.6,1.6,0,0,1,.125.21v-.019c.021.045.032.1.052.151a1.632,1.632,0,0,1,.079.23,1.869,1.869,0,0,1,.049.232,1.6,1.6,0,0,1,.033.22.749.749,0,0,1,0,.246c0,.072,0,.145-.01.217l-.046.229c-.026.073-.052.145-.079.217l-.078.217a1.455,1.455,0,0,1-.077.211.852.852,0,0,1-.142.22.23.23,0,0,0-.085.127l-.018.049a2.034,2.034,0,0,1-.184.179,2.207,2.207,0,0,1-.164.154,1.427,1.427,0,0,1-.166.11c-.082.052-.164.1-.249.149l-.013.033-15.176,7.076-.6,13.157,10.46,7.99,15.176-7.076.067-.027a1.584,1.584,0,0,1,.223-.076,2.018,2.018,0,0,1,.232-.068,1.752,1.752,0,0,1,.193-.03l.285-.023.05.018.127.015.284.034.184.067a1.888,1.888,0,0,1,.25.091l.184.067a1.881,1.881,0,0,1,.229.134.99.99,0,0,1,.154.112,1.332,1.332,0,0,1,.207.176,1.246,1.246,0,0,1,.134.149,1.357,1.357,0,0,1,.157.2l.125.21c.021.045.058.084.077.135a.154.154,0,0,1,.022.058,1.585,1.585,0,0,1,.084.239,2.1,2.1,0,0,1,.127.222,1.893,1.893,0,0,1,.03.212c.011.092.018.176.022.266a.576.576,0,0,1-.02.056c-.208,10.49-5.441,19.119-14,23.107a23.966,23.966,0,0,1-18.488.6,29.305,29.305,0,0,1-9.6-5.856l-9.03,4.21c-.038.018-.087.05-.121.038a.923.923,0,0,1-.089.056l-43.251,20.168c.43,11.005-4.946,20.653-14.006,24.878a23.718,23.718,0,0,1-9.947,2.186A23.725,23.725,0,0,1-1963.912-347.027Zm-.828-41.655,12.6,9.627a2.368,2.368,0,0,1,.94,2.005l-.729,15.85a2.37,2.37,0,0,1-1.379,2.056l-12.657,5.9c5.955,3.44,12.608,3.959,18.384,1.26,7.791-3.628,12.068-11.987,11.168-21.8,0-.006.005,0,.009,0s.014.007.011-.053a1.954,1.954,0,0,1,0-.264.975.975,0,0,1,.013-.21c.032-.154.069-.306.11-.458l.075-.205c.026-.073.053-.145.079-.217a1.462,1.462,0,0,1,.135-.2,1.985,1.985,0,0,1,.126-.175,1.471,1.471,0,0,1,.176-.169,1.641,1.641,0,0,1,.163-.155l.184-.122a2.359,2.359,0,0,1,.222-.127l.057-.036,44.716-20.851.115-.04c.029-.02.058-.039.089-.056l10.5-4.9.072-.024.2-.071c.085-.026.172-.057.26-.076l.145-.016a1.811,1.811,0,0,1,.319-.029l.1.006a1.719,1.719,0,0,1,.353.034l.094.034a2.355,2.355,0,0,1,.328.12l.128.047a2,2,0,0,1,.286.148l.134.1a2.187,2.187,0,0,1,.227.189l.056.021c6.936,7.01,16.088,9.094,23.881,5.46,5.78-2.691,9.646-8.12,10.851-14.894l-12.664,5.906a2.41,2.41,0,0,1-1.791.091,2.518,2.518,0,0,1-.636-.345l-12.632-9.657a2.368,2.368,0,0,1-.934-2l.729-15.85a2.369,2.369,0,0,1,1.378-2.056l12.67-5.9c-5.953-3.427-12.6-3.955-18.447-1.227-7.793,3.634-12.072,12-11.17,21.828a2.206,2.206,0,0,1-.007.4.543.543,0,0,1-.027.072,2.4,2.4,0,0,1-.075.364.6.6,0,0,0-.035.095,2.2,2.2,0,0,1-.117.322.786.786,0,0,1-.041.112,2.968,2.968,0,0,1-.18.268,1.073,1.073,0,0,1-.083.108,2.532,2.532,0,0,1-.2.2c-.046.04-.088.088-.14.126a2.267,2.267,0,0,1-.191.126c-.074.049-.176.137-.219.134s-.053.025-.053.025l-39.6,18.453-15.775,7.375-.057.017a2.475,2.475,0,0,1-.24.089l-.217.059-.2.029c-.092.011-.178.023-.274.026l-.14-.013a1.769,1.769,0,0,1-.323-.03l-.1-.036-.262-.1-.156-.057c-.113-.053-.221-.137-.338-.179l-.067-.024a2.187,2.187,0,0,1-.31-.257c-6.957-7.025-16.118-9.1-23.907-5.477-5.8,2.7-9.688,8.13-10.859,14.917l12.671-5.909a2.408,2.408,0,0,1,1.008-.221A2.409,2.409,0,0,1-1964.74-388.682Z" transform="translate(2897.289 1481.857)" fill="url(#linear-gradient)"/>
  </g>
</svg>
