<svg xmlns="http://www.w3.org/2000/svg" xmlns:xlink="http://www.w3.org/1999/xlink" width="2432" height="1442" viewBox="0 0 2432 1442">
  <defs>
    <linearGradient id="linear-gradient" x1="0.913" y1="0.071" x2="0.023" y2="0.975" gradientUnits="objectBoundingBox">
      <stop offset="0" stop-color="#07f"/>
      <stop offset="1" stop-color="#d600ff"/>
    </linearGradient>
  </defs>
  <g id="Group_5" data-name="Group 5" transform="translate(-611.579 -736)">
    <rect id="Rectangle_1" data-name="Rectangle 1" width="2432" height="1442" transform="translate(611.578 736)" fill="#fff" opacity="0"/>
    <path id="Union_3" data-name="Union 3" d="M-4271.639,581.735a50.686,50.686,0,0,1-50.637-50.639V514.2a67.431,67.431,0,0,1,50.637-65.113V254.651l-16.9,8.448V383.643a50.372,50.372,0,0,1-28,45.276L-4468.4,504.851a88.686,88.686,0,0,1-39.532,9.349,89.177,89.177,0,0,1-39.533-9.349l-151.867-75.933a50.323,50.323,0,0,1-28-45.276V263.051l-26.2-13.1a43.94,43.94,0,0,1-24.441-39.531,43.981,43.981,0,0,1,24.4-39.533l206.063-103.032a89.9,89.9,0,0,1,79.018,0l206.063,103.032a43.983,43.983,0,0,1,24.394,39.533V449.045l.14.044a67.432,67.432,0,0,1,50.639,65.113v16.9a50.687,50.687,0,0,1-50.639,50.639Zm-17.083-67.574v16.9a16.9,16.9,0,0,0,16.9,16.9h33.741a16.9,16.9,0,0,0,16.9-16.9h-.048v-16.9a33.783,33.783,0,0,0-33.741-33.742A33.785,33.785,0,0,0-4288.722,514.161Zm-404.96-130.56a16.765,16.765,0,0,0,9.35,15.091l151.865,75.933a55.5,55.5,0,0,0,48.833,0l151.867-75.933a16.679,16.679,0,0,0,9.349-15.091h-.057V279.9l-146.072,73.038a88.685,88.685,0,0,1-39.531,9.35,89.164,89.164,0,0,1-39.533-9.35L-4693.682,279.9Zm161.264-285.553L-4738.482,201.08a10.436,10.436,0,0,0-5.791,9.35,10.434,10.434,0,0,0,5.791,9.349l206.016,103.032a55.5,55.5,0,0,0,48.833,0l206.064-103.032h.048a10.435,10.435,0,0,0,5.789-9.349,10.437,10.437,0,0,0-5.789-9.35L-4483.537,98.048a54.624,54.624,0,0,0-24.44-5.789A54.62,54.62,0,0,0-4532.418,98.048Zm-1084.3,440.787a292.013,292.013,0,0,0-76.3-10.4,298.631,298.631,0,0,0-77.3,10.4h-3.8a379.592,379.592,0,0,0-98.2-12.9,388.819,388.819,0,0,0-99.3,12.9,6.092,6.092,0,0,1-7.6-5.9v-227.4a6.216,6.216,0,0,1,3.6-5.6,206.55,206.55,0,0,1,60.3-22.7,215.426,215.426,0,0,1,54.4-4.1c-7.5-14.9-9.9-26.5-9.9-42.2,0-64.2,52.1-109.2,114.8-99.3,56.8,9,88.5,62.3,79.8,117.7a98.878,98.878,0,0,1-8.8,24,216.8,216.8,0,0,1,55.1,3.8,204.009,204.009,0,0,1,61.2,22.9,6.264,6.264,0,0,1,3.5,5.5v183.9a6.036,6.036,0,0,1-1.8,4.4l-43.5,43.5a6.036,6.036,0,0,1-4.3,1.789A6.537,6.537,0,0,1-5616.722,538.835Zm-4.2-13.8v-35.7a6.061,6.061,0,0,1,6.1-6.1h37.4v-174.2c-34.8-19.2-75.2-27-114.7-23-13.1,21.5-32.5,46.4-40.8,68.1,6.6,1,10.9,6,12.8,12.2a24.259,24.259,0,0,1,0,14.6,19.026,19.026,0,0,1-3.1,6.2,21.234,21.234,0,0,1,3.1,6.2,24.591,24.591,0,0,1,0,14.7c-2.1,6.9-7.2,12.3-15.2,12.3h-3.2c-6.3,12.9-15.4,24.8-27.7,28.1v76.6a306.6,306.6,0,0,1,72.725-8.925A304.755,304.755,0,0,1-5620.922,525.034Zm-157.6,0v-76.3c-13-2.8-22.7-15.2-29.1-28.5h-3.2c-8.1,0-13.1-5.4-15.2-12.3-2.1-6.7-1.2-15,3-20.8a21.159,21.159,0,0,1-3.1-6.2,24.242,24.242,0,0,1,0-14.6c1.9-6.2,6.1-11.1,12.7-12.2-8.2-21.3-28-46.8-40.8-68.2a196.761,196.761,0,0,0-113.1,23.1v216a398.045,398.045,0,0,1,94.655-11.407A392.226,392.226,0,0,1-5778.521,525.034Zm169.6-6.8,22.7-22.7h-22.7Zm-143.4-97.9h-41.6C-5780.922,442.835-5765.322,442.835-5752.321,420.334Zm-58.5-12.2h75.4c5.5,0,5.5-14.9,0-14.9h-75.4C-5816.321,393.235-5816.321,408.134-5810.821,408.134Zm0-27.1h75.4c5.5.1,5.5-14.9,0-14.9h-75.4C-5816.321,366.134-5816.321,381.035-5810.821,381.035Zm-46.9-133.5c4.7,29.5,45.3,70.9,57.2,106.5h54.7c8.5-25.5,30.2-52.2,44.5-76.4.1-.2.3-.5.4-.7,6.2-10.5,10.9-20.5,12.3-29.4,8.6-54.8-26.4-104.9-84.5-104.9S-5866.322,192.834-5857.722,247.534Zm248.6,209.8c-25.6-8-52.1-13.6-77-12.3-8,.4-8.6-11.7-.6-12.1,26.1-1.4,54.4,4.4,81.2,12.8,6.984,2.178,4.588,11.925-1.589,11.925A6.662,6.662,0,0,1-5609.121,457.334Zm-330.2-11.6c27-8.4,54.9-14.2,81.2-12.9,8,.4,7.4,12.6-.6,12.1-24.7-1.2-51.5,4.4-77,12.4a6.673,6.673,0,0,1-2.011.325C-5943.911,457.66-5946.307,447.912-5939.321,445.734Zm330.2-38.4c-25.6-8.1-52.1-13.6-77-12.4-8,.4-8.6-11.7-.6-12.1,26.1-1.4,54.4,4.4,81.2,12.9,6.984,2.177,4.588,11.924-1.589,11.925A6.661,6.661,0,0,1-5609.121,407.334Zm-330.2-11.6c27-8.5,54.9-14.2,81.2-12.9,8,.4,7.4,12.6-.6,12.1-24.7-1.3-51.5,4.4-77,12.4a6.673,6.673,0,0,1-2.011.325C-5943.911,407.661-5946.307,397.911-5939.321,395.735Zm330.2-38.5c-25.6-8-52.1-13.6-77-12.3-8,.4-8.6-11.7-.6-12.1,26.1-1.4,54.4,4.4,81.2,12.8,6.984,2.177,4.588,11.924-1.589,11.925A6.661,6.661,0,0,1-5609.121,357.234Zm-330.2-11.6c27-8.5,54.9-14.2,81.2-12.9,8,.4,7.4,12.6-.6,12.1-24.7-1.2-51.5,4.4-77,12.4a6.672,6.672,0,0,1-2.011.325C-5943.911,357.56-5946.307,347.811-5939.321,345.635Zm1009.428-.2a84.5,84.5,0,0,1-84.381-84.381v-641.2a84.5,84.5,0,0,1,84.381-84.381h540.023a50.686,50.686,0,0,1,50.638,50.639V-177.65a16.871,16.871,0,0,1-16.9,16.9,16.87,16.87,0,0,1-16.894-16.9V-413.892a16.9,16.9,0,0,0-16.9-16.9h-539.976a50.685,50.685,0,0,0-50.637,50.637l-.1,574.054a83.465,83.465,0,0,1,50.639-17.321l.048-236.243a16.9,16.9,0,0,1,16.894-16.9,16.9,16.9,0,0,1,16.9,16.9l-.048,236.243h86.232a16.871,16.871,0,0,1,16.894,16.9,16.9,16.9,0,0,1-16.894,16.894h-119.975a50.685,50.685,0,0,0-50.637,50.639,50.685,50.685,0,0,0,50.637,50.637h168.767l.045,0a16.872,16.872,0,0,1,16.9,16.9,16.9,16.9,0,0,1-16.9,16.9Zm-836.529-27.1v-96.9a5.934,5.934,0,0,1,2.7-5c18.1-13.2,39.6.3,39.6,19.3a24.556,24.556,0,0,1-30.2,23.9v58.7h.1a5.816,5.816,0,0,1-6.1,6A5.815,5.815,0,0,1-5766.421,318.334Zm15.007-70.6c3.112.5,7.686,1,11.892-3.5,9.4-10.1-2.4-25.8-14.7-19.6v22.8a2.843,2.843,0,0,1,.353-.02A18.083,18.083,0,0,1-5751.414,247.73Zm-40.708,70.6v-58.8a24.556,24.556,0,0,1-30.2-23.9c0-18.9,21.6-32.4,39.7-19.3a6.065,6.065,0,0,1,2.7,5v97a5.816,5.816,0,0,1-6.1,6A5.816,5.816,0,0,1-5792.122,318.334Zm-14.6-74.2c4.216,4.581,8.805,4.085,11.917,3.589a11.975,11.975,0,0,1,2.782-.29v-22.8a12.5,12.5,0,0,0-5.725-1.441C-5807.528,223.192-5814.633,235.718-5806.721,244.135Zm156.4-18.1c-8,0-8-12.2,0-12.2h30.8c8,0,8,12.2,0,12.2Zm-275,0c-8,0-8-12.1,0-12.1h30.8c8,0,8,12.1,0,12.1Zm230.1-92.6,21.8-21.8c5.7-5.7,14.3,2.9,8.6,8.6l-21.8,21.8a5.8,5.8,0,0,1-4.149,1.832C-5695.465,143.868-5699.608,137.822-5695.222,133.435Zm-165.7,7.5-21.7-21.8c-5.6-5.6,2.9-14.3,8.6-8.6l21.7,21.8c4.312,4.31.264,10.459-4.427,10.46A5.835,5.835,0,0,1-5860.921,140.935Zm81.7-33.7v-30.8c0-8,12.2-8,12.2,0v30.8a5.815,5.815,0,0,1-6.1,6A5.815,5.815,0,0,1-5779.222,107.235Zm1406.17-21V-8.922a16.871,16.871,0,0,1,16.9-16.9,16.871,16.871,0,0,1,16.9,16.9V86.231a16.87,16.87,0,0,1-16.9,16.894A16.871,16.871,0,0,1-4373.052,86.231Zm-742.435-61.365a16.871,16.871,0,0,1-16.9-16.894,16.9,16.9,0,0,1,16.9-16.9h33.744a16.87,16.87,0,0,1,16.894,16.9,16.9,16.9,0,0,1-16.894,16.894Zm-33.747-50.637a16.872,16.872,0,0,1-16.9-16.9,16.9,16.9,0,0,1,16.9-16.9h101.228a16.871,16.871,0,0,1,16.9,16.9,16.9,16.9,0,0,1-16.9,16.9Zm506.188-16.852a16.871,16.871,0,0,1-16.9-16.9,16.871,16.871,0,0,1,16.9-16.894h33.742a16.871,16.871,0,0,1,16.9,16.894,16.871,16.871,0,0,1-16.9,16.9ZM-4368.12-47.6l-33.742-33.741a16.874,16.874,0,0,1,0-23.873l33.742-33.741h-.046a16.867,16.867,0,0,1,23.87,0l33.744,33.741a16.873,16.873,0,0,1,0,23.873L-4344.3-47.6a16.82,16.82,0,0,1-11.912,4.935A16.823,16.823,0,0,1-4368.12-47.6Zm2.089-45.7,9.871,9.871,9.872-9.871-9.872-9.871Zm-816.994-33.742V-135.3a16.32,16.32,0,0,0-8.922-14.523c-76.881-40.007-119.025-121.545-107.351-207.777,12.284-90.074,86.749-162.875,176.967-173.078a202.632,202.632,0,0,1,140.762,36.068,16.873,16.873,0,0,1,3.939,23.54,16.915,16.915,0,0,1-23.54,3.938,169.185,169.185,0,0,0-117.412-30.04c-75.126,8.492-137.059,69.093-147.31,144.079-9.729,71.9,25.39,139.957,89.459,173.273a49.964,49.964,0,0,1,27.146,44.516v8.258a16.9,16.9,0,0,0,16.9,16.9h67.486a16.418,16.418,0,0,0,8.352-2.231,16.886,16.886,0,0,1,23.064,6.028,16.921,16.921,0,0,1-6.026,23.112,50.412,50.412,0,0,1-25.39,6.834l-67.481,0A50.686,50.686,0,0,1-5183.025-127.044Zm523.137,33.789a16.872,16.872,0,0,1-16.9-16.9,16.872,16.872,0,0,1,16.9-16.9h67.486a16.871,16.871,0,0,1,16.894,16.9,16.871,16.871,0,0,1-16.894,16.9Zm-270-16.9v-33.742a16.9,16.9,0,0,1,16.9-16.9,16.872,16.872,0,0,1,16.9,16.9v33.742a16.9,16.9,0,0,1-16.9,16.9A16.872,16.872,0,0,1-4929.885-110.152Zm219.307-33.742a16.87,16.87,0,0,1-16.894-16.9,16.87,16.87,0,0,1,16.894-16.894h168.766a16.872,16.872,0,0,1,16.9,16.894,16.871,16.871,0,0,1-16.9,16.9Zm-219.3-50.639v-16.894a16.9,16.9,0,0,1,16.9-16.9,16.871,16.871,0,0,1,16.9,16.9v16.894a16.9,16.9,0,0,1-16.9,16.9A16.871,16.871,0,0,1-4929.88-194.533Zm168.708-.006a50.687,50.687,0,0,1-50.639-50.639v-67.486a50.686,50.686,0,0,1,50.639-50.637h269.993a50.687,50.687,0,0,1,50.639,50.637v67.486a50.687,50.687,0,0,1-50.639,50.639Zm-16.84-118.125v67.486a16.9,16.9,0,0,0,16.9,16.9h269.995a16.9,16.9,0,0,0,16.894-16.9v-67.486a16.9,16.9,0,0,0-16.894-16.9h-269.995A16.932,16.932,0,0,0-4778.012-312.664Z" transform="translate(6943.818 1432.133)" fill="url(#linear-gradient)"/>
  </g>
</svg>
