<svg xmlns="http://www.w3.org/2000/svg" xmlns:xlink="http://www.w3.org/1999/xlink" width="2432" height="1442" viewBox="0 0 2432 1442">
  <defs>
    <linearGradient id="linear-gradient" x1="1" x2="0" y2="1" gradientUnits="objectBoundingBox">
      <stop offset="0" stop-color="#07f"/>
      <stop offset="1" stop-color="#d600ff"/>
    </linearGradient>
  </defs>
  <g id="Group_3" data-name="Group 3" transform="translate(-611.579 -736)">
    <rect id="Rectangle_1" data-name="Rectangle 1" width="2432" height="1442" transform="translate(611.578 736)" fill="#fff" opacity="0"/>
    <path id="Union_2" data-name="Union 2" d="M-2738.516,859.14c-17.442,0-36.638-5.222-57.8-13.126-110.3-41.384-203.543-76.335-286.789-107.855-37.647,37.01-148.943-9.336-195.862-32.76-.058-.029-.117-.052-.177-.081-.013-.007-.022-.019-.036-.027-104-50.542-190.463-133.586-243.354-233.8-11.566-22.45-22.6-46.79-25.248-73.214-4.312-39.725,10.205-79.976-.278-114.479-.793-2.5-1.957-5.118-3.028-7.7a117.92,117.92,0,0,1-23.5,2.859c-41.37,0-108.9-47.55-110.93-49.519-38.034-25.231-57.956-66.983-57.406-121.587,1.057-105.9,78.5-236.59,169.138-285.4,46.849-25.229,92.769-26.455,132.808-3.56l58.149,33.549c26.548,15.044,41.573,41.3,48.487,70.893,74.948,29.444,153.433,61.152,219.55,103.775,2.136,1.374,4.161,2.918,6.245,4.369,21.253-23.291,44.514-42.622,68.769-56.625,76.77-44.284,123.177-11.983,125.28-11.576h.005l5.479,3.178c34.519-66.836,81.6-114.248,126.585-140.216,82.991-47.882,123.7-19.915,253.95,63.338,65.543,41.867,63.783,166.638-4,284.063l-113.961,197.389c34.829,20.559,68.9,42.814,99.272,69.808,39.6,35.394,63.523,84.528,23.063,117.187a58.955,58.955,0,0,1-7.019,4.884,330.168,330.168,0,0,1,71.354,57.15c49.607,53.726,27.628,96.36-10.134,102.962a53.338,53.338,0,0,1-18.664.06c2.69,20.947-4.537,43.963-20.622,59.68-29.711,28.1-82.942,37.57-151.878-4.942a84.41,84.41,0,0,1-14.848,45.07c-17.924,26.369-38.6,36.248-62.586,36.248Zm-549.256-456.251a10.109,10.109,0,0,1,3.856,13.78c-7.89,14.03-1.909,32.091,2.353,41.611,17.5,40.122,56.074,52.964,58.1,54.273,60.7,28.616,118.848,71.882,141.478,134.735,8.5,25.49,10.508,50.068,6.721,72.174,87.462,33.114,176.205,66.368,285.664,107.445,38.244,14.287,71.387,22.207,96.93-15.393,10.633-15.658,13.947-34.313,9.15-50.2-8.716-12.085-80.541-102.573-331.895-195.1a10.132,10.132,0,0,1-6-13,10.154,10.154,0,0,1,13-6c261.173,96.146,332.6,189.484,341.961,203.139,45.686,30.705,103.454,55.5,143.22,17.82,16.4-16.035,19.961-43.823,7.654-60.582-37.344-50.837-183.132-120.828-241.112-146.458-11.049,15.326-29.664,27.058-45.087,18.277-235.03-133.345-232.889-132.837-347.094-199.21-69.231-39.277-74.974-162.4-12.723-274.4a400.873,400.873,0,0,1,39.712-58.947c-1.3-.886-2.553-1.861-3.875-2.712C-3190.2,2.6-3261.655-25.9-3330.746-53.465c-49.51-19.989-84.416-30.48-133.332-8.56-71.643,32.316-141.141,131.433-126.273,221.948,1.726,40.195,46.444,70.048,61.629,117.87,12.127,39.9-2.968,81.061,1.078,118.393,2.323,23.132,12.457,45.356,23.064,65.949,49.24,93.283,129,170.909,225,219.989.149-.3.248-.626.4-.927,2.217-2.678,5.831-20.848,29.045-31.6,20.434-8.809,45.514-8.116,74.7,1.867,46.624,16.167,50.144,36.969,48.924,80.544,11.282.333,22.882-1.884,29.905-9.731a11.688,11.688,0,0,1,1.1-2.571c4.142-19.633,2.235-42.282-5.606-65.789-20.528-57.02-75.464-96.868-130.692-122.922-7.477-4.885-48.646-19.514-68.054-64.05-10.232-22.827-10.775-44.071-1.69-60.205a10.057,10.057,0,0,1,8.8-5.182A10.056,10.056,0,0,1-3287.772,402.889ZM-2746.084,543.6c60.295,26.686,199.129,93.288,246.515,151.621,5.379,6.624,15.689,9.669,26.169,7.86,33.023-5.78,25.508-40.3-1.177-69.2a311.667,311.667,0,0,0-88.894-65.524c-3.455-1.7-38.878-34.025-146.765-86.844ZM-2856.077,46.187c-67.911,13.032-128.988,80.968-162.79,142.079-43.537,78.335-67.161,206.054,5.091,247.03l222.018,126.519c5.034,2.83,16.8-8.78,21.343-16.568l220.388-381.725c61.322-106.213,66.1-221.454,10.637-256.875-42.391-27.082-99.554-.544-138.73,31.069-38.9,31.383-71.114,74.892-93.549,121.48a9.871,9.871,0,0,1-13.182,4.639c-15.766-7.032-25.418-19.739-51.291-19.739A105.858,105.858,0,0,0-2856.077,46.187Zm156.035,417.666c90.588,44.343,133.94,76.742,144.868,85.474,5.748.153,12.4-2.252,18.335-7.048,29.7-23.959,4.881-60.683-23.806-86.333-29.071-25.827-62.071-47.372-95.937-67.368ZM-3029.66-7.6c-43.636,25.191-84.208,68.955-114.231,123.218-56.894,102.35-54.591,213.161,5.1,247.03l73.116,42.49c-30.5-67.548-7.2-161.379,29.1-226.684,38.1-68.893,107.39-143.332,184.339-153.452l-72.449-44.217a73.713,73.713,0,0,0-37.026-9.379C-2984.811-28.6-3008.849-19.626-3029.66-7.6Zm-624.5,155.545c0,.006-.005.011-.005.017s.005.014.005.023c.336,3.916-2.905,51.512,21.729,82.3,17.827,23.4,42.321,31.238,71.788,27.051-17.956-29.518-49.812-61.13-49.812-95.766-16.223-97.921,59.711-206.695,138.087-242.057,32.679-14.64,64.4-20.563,114.167-4.789-12.205-34.261-31.8-42.348-33.864-44.235a78.476,78.476,0,0,0-37.921-9.337C-3525.326-138.849-3651.166,11.418-3654.164,147.941Zm-68.38-45.741,48.944,28.4c8.954-96.865,73.307-205.823,153.928-258.886l-49.428-28.69C-3648.886-110.83-3718.842,7.345-3722.544,102.2Zm830.87-125.658c99.959,58.141,102.935,59.653,107.4,62.567,24.747-47.931,59.816-90.449,95.657-118.816,4.08-3.231,15.595-11.576,16.667-12.3l-105.364-61.234C-2825.466-123.713-2865.644-74.15-2891.674-23.459Zm-999.24,873.995a29.294,29.294,0,0,1-8.6-20.776,29.3,29.3,0,0,1,8.6-20.777,29.29,29.29,0,0,1,20.777-8.6,29.277,29.277,0,0,1,17.794,6,126.322,126.322,0,0,0,8.407-11.754,127.386,127.386,0,0,0,8.367-15.533,3.194,3.194,0,0,1,4.223-1.595,3.194,3.194,0,0,1,1.6,4.223,135.081,135.081,0,0,1-8.8,16.3,136.891,136.891,0,0,1-9.167,12.774,29.283,29.283,0,0,1,6.93,18.958,29.267,29.267,0,0,1-8.6,20.776,29.29,29.29,0,0,1-20.777,8.6A29.216,29.216,0,0,1-3890.914,850.536Zm-92.751,6.4a134.345,134.345,0,0,1-74.058-47.567,133.764,133.764,0,0,1-28.7-82.987,133.879,133.879,0,0,1,39.33-94.95,133.873,133.873,0,0,1,94.949-39.329,133.637,133.637,0,0,1,71.614,20.684,134.864,134.864,0,0,1,49.7,55.962,3.2,3.2,0,0,1-1.517,4.263,3.2,3.2,0,0,1-4.262-1.517,128.474,128.474,0,0,0-47.319-53.307A127.325,127.325,0,0,0-3952.14,598.5a127.483,127.483,0,0,0-90.427,37.458,127.516,127.516,0,0,0-37.449,90.415A127.348,127.348,0,0,0-4052.69,805.4a127.976,127.976,0,0,0,70.5,45.318,21.549,21.549,0,0,0,9.781.169,21.591,21.591,0,0,0,8.786-4.249,21.71,21.71,0,0,0,6.184-7.544,21.691,21.691,0,0,0,2.105-9.545V807.676a61.049,61.049,0,0,1-40.126-17.9,61,61,0,0,1-17.978-43.265v-15.1a3.209,3.209,0,0,1,3.2-3.2h4.446V674.075a8.35,8.35,0,0,1,2.458-5.923,8.348,8.348,0,0,1,5.923-2.458h16.1l-.013-6.015a3.209,3.209,0,0,1,3.2-3.2,3.209,3.209,0,0,1,3.2,3.2v18.03a3.21,3.21,0,0,1-3.2,3.2,3.21,3.21,0,0,1-3.2-3.2V672.1h-16.1a1.969,1.969,0,0,0-1.385.575,1.969,1.969,0,0,0-.575,1.386v54.158h4.471a3.21,3.21,0,0,1,3.2,3.2v15.115a39.389,39.389,0,0,0,11.6,27.889,39.36,39.36,0,0,0,27.889,11.6,39.394,39.394,0,0,0,27.889-11.6,39.374,39.374,0,0,0,11.61-27.889l.014-15.1a3.209,3.209,0,0,1,3.2-3.2h4.6l-.013-54.158a1.97,1.97,0,0,0-.574-1.387,1.972,1.972,0,0,0-1.387-.575h-14.03v5.61a3.208,3.208,0,0,1-3.2,3.2,3.209,3.209,0,0,1-3.2-3.2V659.68a3.209,3.209,0,0,1,3.2-3.2,3.208,3.208,0,0,1,3.2,3.2v6.028h14.03a8.345,8.345,0,0,1,5.923,2.457,8.35,8.35,0,0,1,2.458,5.924v54.158h4.328a3.208,3.208,0,0,1,3.2,3.2l-.013,15.089a61.051,61.051,0,0,1-17.978,43.265,61.053,61.053,0,0,1-39.982,17.887v21.888a27.931,27.931,0,0,1-2.745,12.316,28.015,28.015,0,0,1-7.989,9.794,28.016,28.016,0,0,1-11.388,5.465,26.589,26.589,0,0,1-5.725.618A29.226,29.226,0,0,1-3983.665,856.932Zm-23.381-110.392a54.646,54.646,0,0,0,16.095,38.727,54.654,54.654,0,0,0,38.727,16.1,54.644,54.644,0,0,0,38.727-16.1,54.65,54.65,0,0,0,16.1-38.727l.014-11.9h-8.276v11.44a46.35,46.35,0,0,1-13.65,32.832,46.347,46.347,0,0,1-32.831,13.65,46.347,46.347,0,0,1-32.831-13.65,46.347,46.347,0,0,1-13.65-32.832v-11.44h-8.394Zm185.993,28.267a48.3,48.3,0,0,1-34.242-14.187,48.278,48.278,0,0,1-14.187-34.242,48.306,48.306,0,0,1,14.187-34.241,48.276,48.276,0,0,1,34.242-14.187,48.3,48.3,0,0,1,34.242,14.187,48.277,48.277,0,0,1,14.186,34.241,48.337,48.337,0,0,1-14.186,34.256A48.231,48.231,0,0,1-3821,774.807Zm970.2-380.974-43.7-48.629-54.2,31.29a7.59,7.59,0,0,1-10.371-2.778,7.6,7.6,0,0,1,2.778-10.371l59.532-34.362a7.616,7.616,0,0,1,9.441,1.5l37.794,42.056,48.124-230.412a7.6,7.6,0,0,1,6.3-5.951,7.631,7.631,0,0,1,7.771,3.815l46.346,83.486,31.783-79.69a7.581,7.581,0,0,1,6.485-4.765,7.962,7.962,0,0,1,7.129,3.746l29.785,51.13,53.73-31.022a7.6,7.6,0,0,1,10.37,2.777,7.594,7.594,0,0,1-2.777,10.37l-60.284,34.808a7.606,7.606,0,0,1-10.361-2.748l-25.742-44.21-31.941,80.086a7.554,7.554,0,0,1-6.565,4.766,7.506,7.506,0,0,1-7.118-3.886l-44.209-79.641-47.018,225.114a7.585,7.585,0,0,1-7.487,6.045A7.411,7.411,0,0,1-2850.854,393.833Zm676.141-480.672a27.423,27.423,0,0,1-27.389-27.389l.01-166.383A27.423,27.423,0,0,1-2174.7-308l78.1.01A27.423,27.423,0,0,1-2069.21-280.6v11.38a64.135,64.135,0,0,1,60.267,63.951,64.153,64.153,0,0,1-60.267,63.952l0,0v27.105a27.424,27.424,0,0,1-27.39,27.39ZM-2194.5-114.22a19.807,19.807,0,0,0,19.786,19.786h78.112a19.816,19.816,0,0,0,19.8-19.786v-7.564H-2194.5Zm0-166.4v151.229h117.694v-11.948a64.136,64.136,0,0,1-60.268-63.951,64.144,64.144,0,0,1,60.268-63.951v-11.38a19.811,19.811,0,0,0-19.8-19.787h-78.112A19.814,19.814,0,0,0-2194.5-280.616Zm65.008,75.332a56.537,56.537,0,0,0,56.472,56.471,56.526,56.526,0,0,0,56.481-56.471,56.536,56.536,0,0,0-56.472-56.472A56.545,56.545,0,0,0-2129.492-205.284Zm-17.123,100.048a3.8,3.8,0,0,1-3.8-3.8,3.8,3.8,0,0,1,3.8-3.8h21.916a3.79,3.79,0,0,1,3.8,3.8,3.8,3.8,0,0,1-3.8,3.8Zm70.908-65.217-26.963-26.972a22.89,22.89,0,0,1,0-32.34,22.916,22.916,0,0,1,29.66-2.3,22.9,22.9,0,0,1,29.66,2.291h0a22.89,22.89,0,0,1,0,32.34l-26.981,26.981a3.793,3.793,0,0,1-2.689,1.108A3.825,3.825,0,0,1-2075.707-170.453Zm-21.585-53.944a15.3,15.3,0,0,0,0,21.6L-2073-178.5l24.291-24.291a15.306,15.306,0,0,0-.009-21.6h0a15.3,15.3,0,0,0-21.6,0,3.789,3.789,0,0,1-5.368,0,15.225,15.225,0,0,0-10.8-4.468A15.225,15.225,0,0,0-2097.292-224.4Zm-49.322-57.892a3.8,3.8,0,0,1-3.8-3.8,3.8,3.8,0,0,1,3.8-3.8h21.916a3.8,3.8,0,0,1,3.8,3.8,3.8,3.8,0,0,1-3.8,3.8Zm-25.164,0a3.789,3.789,0,0,1-3.8-3.8,3.8,3.8,0,0,1,3.8-3.8h2.338a3.8,3.8,0,0,1,3.8,3.8,3.8,3.8,0,0,1-3.8,3.8Z" transform="translate(4914.559 1163.57)" fill="url(#linear-gradient)"/>
  </g>
</svg>
