<svg xmlns="http://www.w3.org/2000/svg" xmlns:xlink="http://www.w3.org/1999/xlink" viewBox="0 0 1168.73 1168.73"><defs><style>.cls-1{fill:url(#linear-gradient);}</style><linearGradient id="linear-gradient" x1="-2387.42" y1="1779.55" x2="-2386.76" y2="1778.81" gradientTransform="matrix(1168.73, 0, 0, -1168.73, 2790435.18, 2079962.68)" gradientUnits="userSpaceOnUse"><stop offset="0" stop-color="#030303"/><stop offset="1"/></linearGradient></defs><title>Logomain</title><g id="Layer_2" data-name="Layer 2"><g id="Layer_1-2" data-name="Layer 1"><path id="Logo" class="cls-1" d="M584.36,1168.73c-5,0-10.09-.06-15.08-.19s-10-.32-15-.57-9.95-.57-14.89-.94-9.88-.82-14.78-1.32-9.83-1.06-14.68-1.67-9.74-1.3-14.57-2-9.67-1.54-14.45-2.4-9.58-1.77-14.32-2.74-9.5-2-14.21-3.1-9.41-2.23-14.07-3.43-9.33-2.46-13.93-3.77-9.24-2.68-13.8-4.1-9.13-2.9-13.65-4.44-9-3.11-13.5-4.75-8.94-3.34-13.35-5.07-8.84-3.55-13.19-5.39-8.73-3.76-13-5.7-8.62-4-12.86-6-8.51-4.17-12.69-6.3-8.38-4.36-12.51-6.6-8.26-4.55-12.33-6.89-8.15-4.76-12.14-7.18-8-4.94-12-7.46-7.89-5.13-11.76-7.74-7.75-5.3-11.56-8-7.62-5.49-11.35-8.28-7.48-5.67-11.14-8.55-7.34-5.84-10.93-8.8-7.2-6-10.72-9-7.05-6.18-10.49-9.31-6.9-6.35-10.26-9.56-6.75-6.51-10-9.8-6.59-6.66-9.8-10-6.43-6.82-9.56-10.26-6.26-7-9.31-10.49-6.1-7.14-9.05-10.72-5.92-7.26-8.8-10.93-5.76-7.43-8.55-11.14-5.57-7.55-8.28-11.35-5.4-7.7-8-11.56-5.22-7.82-7.74-11.76-5-8-7.46-12-4.84-8.09-7.18-12.16S72.76,867,70.53,862.9s-4.46-8.33-6.6-12.51-4.27-8.46-6.3-12.69-4.06-8.56-6-12.85-3.86-8.68-5.7-13-3.65-8.79-5.39-13.19-3.44-8.9-5.07-13.35-3.24-9-4.76-13.5-3-9.11-4.44-13.65-2.8-9.2-4.1-13.8S19.6,735,18.4,730.4,16.05,721,15,716.33s-2.13-9.49-3.09-14.2S10,692.57,9.13,687.8s-1.66-9.64-2.39-14.45-1.43-9.73-2-14.57S3.52,649,3,644.1s-.94-9.88-1.31-14.78-.71-9.94-1-14.89-.44-10-.57-15S0,589.38,0,584.36s.06-10.08.19-15.08.32-10,.57-15,.57-9.95.94-14.89.82-9.88,1.32-14.78,1.06-9.83,1.67-14.68,1.31-9.74,2-14.57,1.54-9.67,2.4-14.45,1.77-9.59,2.74-14.33,2-9.5,3.1-14.2S17.2,443,18.4,438.32s2.46-9.33,3.77-13.93,2.69-9.25,4.1-13.8,2.9-9.13,4.44-13.65,3.12-9,4.75-13.5,3.34-8.94,5.08-13.35,3.55-8.83,5.39-13.18,3.75-8.73,5.7-13,4-8.62,6-12.86,4.15-8.49,6.3-12.69,4.35-8.37,6.6-12.51,4.55-8.26,6.89-12.33,4.75-8.15,7.18-12.14,4.94-8,7.46-12,5.13-7.89,7.73-11.76,5.31-7.76,8-11.55,5.48-7.62,8.28-11.36,5.66-7.47,8.54-11.14,5.85-7.35,8.8-10.93,6-7.19,9.06-10.72,6.18-7,9.31-10.49,6.34-6.9,9.55-10.26,6.51-6.74,9.8-10,6.66-6.58,10-9.8,6.82-6.42,10.27-9.56,7-6.26,10.49-9.3,7.11-6.1,10.71-9.06,7.27-5.93,10.93-8.8,7.42-5.76,11.15-8.55,7.55-5.58,11.35-8.28,7.69-5.4,11.55-8,7.83-5.22,11.76-7.74,8-5,11.95-7.46,8.07-4.83,12.15-7.17,8.21-4.66,12.32-6.9,8.34-4.46,12.51-6.6,8.46-4.26,12.69-6.3,8.57-4.06,12.86-6,8.68-3.86,13-5.7,8.8-3.67,13.2-5.4,8.89-3.44,13.35-5.07,9-3.24,13.5-4.76,9.1-3,13.65-4.44,9.2-2.8,13.8-4.1,9.31-2.57,13.93-3.77S447.72,16,452.4,15s9.48-2.12,14.2-3.09,9.57-1.9,14.33-2.75,9.65-1.66,14.45-2.39S505.1,5.3,510,4.68,519.74,3.5,524.63,3s9.88-.94,14.78-1.32S549.35,1,554.3.75s10-.44,15-.57S579.35,0,584.36,0s10.09.06,15.09.19,10,.32,15,.57,9.95.57,14.89.94,9.88.82,14.78,1.32,9.83,1.06,14.68,1.67,9.75,1.31,14.57,2,9.66,1.54,14.45,2.4,9.58,1.77,14.33,2.74,9.5,2,14.2,3.1,9.42,2.23,14.07,3.43,9.31,2.46,13.93,3.77,9.24,2.69,13.8,4.1,9.14,2.9,13.65,4.44,9,3.12,13.5,4.75,8.94,3.34,13.35,5.08,8.83,3.54,13.19,5.39,8.73,3.75,13,5.7,8.62,4,12.86,6,8.51,4.16,12.69,6.3,8.38,4.36,12.51,6.6,8.26,4.55,12.33,6.89,8.15,4.75,12.14,7.18,8,4.93,12,7.46,7.89,5.12,11.76,7.73,7.76,5.31,11.56,8,7.61,5.48,11.36,8.28,7.47,5.66,11.14,8.54,7.33,5.84,10.93,8.8,7.2,6,10.71,9.06,7.05,6.17,10.49,9.31,6.9,6.34,10.27,9.55,6.73,6.5,10,9.8,6.58,6.67,9.8,10,6.42,6.82,9.55,10.27,6.26,7,9.31,10.49,6.09,7.11,9.06,10.71,5.92,7.26,8.8,10.93,5.75,7.41,8.54,11.14,5.58,7.56,8.28,11.36,5.4,7.68,8,11.55,5.21,7.82,7.73,11.76,5,8,7.46,11.95,4.85,8.08,7.18,12.14,4.66,8.22,6.89,12.33,4.47,8.34,6.6,12.51,4.27,8.46,6.3,12.69,4.07,8.57,6,12.86,3.87,8.69,5.7,13,3.66,8.78,5.39,13.19,3.45,8.9,5.08,13.34,3.23,9,4.75,13.5,3,9.1,4.44,13.65,2.8,9.2,4.1,13.8,2.58,9.3,3.77,13.93,2.35,9.39,3.43,14.07,2.13,9.47,3.1,14.2,1.9,9.58,2.74,14.33,1.66,9.64,2.39,14.45,1.43,9.73,2,14.57,1.18,9.79,1.68,14.68.94,9.87,1.31,14.78.7,10,1,14.89.44,10,.57,15,.19,10.07.19,15.08-.07,10.09-.19,15.09-.32,10-.57,15-.57,10-1,14.89-.81,9.88-1.31,14.78-1.06,9.83-1.68,14.68-1.3,9.74-2,14.57-1.54,9.67-2.39,14.45-1.77,9.57-2.74,14.32-2,9.51-3.1,14.2-2.24,9.43-3.43,14.07-2.46,9.33-3.77,13.94-2.68,9.23-4.1,13.8-2.9,9.14-4.44,13.65-3.12,9-4.75,13.5-3.34,8.94-5.08,13.35-3.55,8.84-5.39,13.19-3.75,8.72-5.7,13-4,8.62-6,12.86-4.16,8.5-6.3,12.69-4.36,8.39-6.6,12.51-4.55,8.26-6.89,12.33-4.75,8.15-7.18,12.14-4.94,8-7.46,12-5.12,7.89-7.73,11.76-5.32,7.76-8,11.55-5.49,7.63-8.28,11.36-5.66,7.48-8.54,11.14-5.85,7.35-8.8,10.93-6,7.2-9.06,10.72-6.18,7-9.31,10.49-6.34,6.89-9.55,10.26-6.5,6.74-9.8,10-6.67,6.59-10,9.8-6.83,6.43-10.27,9.56-7,6.26-10.49,9.3-7.12,6.1-10.71,9.06-7.27,5.93-10.93,8.8-7.42,5.76-11.14,8.55-7.56,5.57-11.36,8.28-7.7,5.4-11.56,8-7.82,5.22-11.76,7.74-8,5-12,7.46-8.08,4.84-12.14,7.18-8.22,4.65-12.33,6.89-8.34,4.46-12.51,6.6-8.44,4.26-12.69,6.3-8.57,4.06-12.86,6-8.67,3.86-13,5.7-8.8,3.65-13.19,5.39-8.9,3.44-13.35,5.07-9,3.24-13.5,4.75-9.11,3-13.65,4.44-9.2,2.8-13.8,4.1-9.29,2.58-13.93,3.77-9.39,2.35-14.07,3.43-9.49,2.13-14.2,3.1-9.57,1.89-14.33,2.74-9.64,1.66-14.45,2.4-9.73,1.42-14.57,2-9.79,1.18-14.68,1.67-9.87.94-14.78,1.32-10,.69-14.89.94-10,.44-15,.57S589.38,1168.73,584.36,1168.73ZM316,890.79c5.67,7.7,11.79,15.24,18.21,22.41,6.57,7.35,13.61,14.5,20.92,21.25s15.05,13.23,23,19.31,16.37,11.86,24.95,17.21,17.6,10.41,26.72,15,18.7,8.83,28.34,12.6,19.7,7.16,29.77,10.06S508.61,1014,519,1016s21.4,3.52,32.18,4.53c11,1,22.1,1.55,33.14,1.55s22.19-.52,33.14-1.55c10.79-1,21.62-2.54,32.19-4.53s20.91-4.46,31.06-7.37,20.1-6.29,29.78-10.06,19.16-8,28.33-12.6,18.11-9.62,26.73-15,17-11.14,24.95-17.22,15.71-12.56,23-19.3,14.35-13.91,20.92-21.25,12.88-15.13,18.66-23,11.28-16.25,16.23-24.66A292.29,292.29,0,0,0,883,839.36a278.57,278.57,0,0,0,25.47-116.43,189.36,189.36,0,0,0-1.09-19.77c-.7-6.58-1.76-13.45-3.14-20.41-1.36-6.79-3.07-13.85-5.08-21-2-7-4.27-14.22-6.85-21.53-2.52-7.14-5.38-14.56-8.49-22-3-7.27-6.38-14.82-10-22.46-3.44-7.32-7.25-15-11.32-22.83-3.88-7.47-8.09-15.26-12.53-23.17-4.2-7.5-8.77-15.38-13.58-23.44-4.51-7.55-9.39-15.52-14.49-23.66-9.31-14.84-19.5-30.48-31.15-47.79-21.55-32-44.59-64.53-66.88-96h0c-13.08-18.45-26.6-37.52-39.51-56.08-14.39-20.67-26.5-38.53-37-54.6-12.57-19.19-23.23-36.33-32.59-52.41-5.06-8.7-9.78-17.17-14-25.17-4.37-8.23-8.4-16.28-12-23.94-3.37,7.61-7.26,15.68-11.56,24-4.19,8.07-8.9,16.62-14,25.43-9.47,16.31-20.47,33.82-33.63,53.51-11,16.51-23.82,34.93-39.12,56.32-13.91,19.44-28.95,40-42.22,58.19h0l0,0-.08.11-.07.09c-22.54,30.87-45.86,62.79-67.77,94.38-5.86,8.45-11.45,16.61-16.59,24.27H470.73l.42,0a8.3,8.3,0,0,1,1.11.09,28.64,28.64,0,1,1,0,18.5,11.13,11.13,0,0,1-1.53.11H351.28l-2.75,4.23c-5.16,8-10.13,15.85-14.77,23.37-4.86,7.89-9.51,15.68-13.84,23.14-4.52,7.8-8.81,15.49-12.78,22.87-.91,1.7-1.8,3.38-2.65,5H578.55l.42,0a8.45,8.45,0,0,1,1.12.09,28.65,28.65,0,1,1,0,18.5,11.28,11.28,0,0,1-1.54.11H295.05c-3.44,7.11-6.69,14.18-9.63,21-3.17,7.33-6.08,14.64-8.67,21.7-2.64,7.23-5,14.36-7,21.2-1.44,5-2.74,9.89-3.86,14.67H679.57a7,7,0,0,1,1.12.09,28.71,28.71,0,1,1,27.2,37.93,31.26,31.26,0,0,1-4.21-.31,28.7,28.7,0,0,1-23-19.12,11.27,11.27,0,0,1-1.54.1H262.3c-.36,2.44-.68,4.91-.95,7.33a176.57,176.57,0,0,0-1.1,19.37,281.27,281.27,0,0,0,1.67,30.57c.78,7.1,1.86,14.27,3.19,21.33H578.55l.4,0a7.08,7.08,0,0,1,1.13.09,28.65,28.65,0,1,1,0,18.5,11.25,11.25,0,0,1-1.53.11H269.32c1.62,6.18,3.47,12.36,5.49,18.37a286.12,286.12,0,0,0,10.9,27.49,292.29,292.29,0,0,0,13.65,26.15c1.32,2.23,2.66,4.45,4,6.6H470.74l.4,0a8.47,8.47,0,0,1,1.13.09,28.71,28.71,0,1,1,27.2,37.93,31.41,31.41,0,0,1-4.22-.31,28.73,28.73,0,0,1-23-19.12,9.83,9.83,0,0,1-1.53.1Z"/></g></g></svg>